<svg xmlns="http://www.w3.org/2000/svg" viewBox="0 0 145.75 31.4"><title>ff-logo</title><path d="M8.28,76.43a3.93,3.93,0,0,1-2.92,1.33,2.91,2.91,0,0,1-3-2.08A4.94,4.94,0,0,1,2.13,74a11.1,11.1,0,0,1,.17-1.91,11.24,11.24,0,0,1,.51-1.9A9,9,0,0,1,5,66.71a4.73,4.73,0,0,1,3.41-1.36,2.54,2.54,0,0,1,1.51.35,1.07,1.07,0,0,1,.46.88v0.14l0.26-1.26h3.5L11.7,76.74a4.37,4.37,0,0,0,1.82-1.12,6.21,6.21,0,0,0,1.24-2.36h1a6.06,6.06,0,0,1-3.13,4.13,7.1,7.1,0,0,1-1.16.42l-0.37,1.76a5.27,5.27,0,0,1-1.85,3.37,3.82,3.82,0,0,1-2.34.76,3.5,3.5,0,0,1-2.11-.58A2.15,2.15,0,0,1,4,81.25Q4,79,8,77.71Zm-0.55,2.5Q5.36,79.79,5.36,81a0.77,0.77,0,0,0,.46.72,1.12,1.12,0,0,0,.45.07A1,1,0,0,0,7,81.27a4.32,4.32,0,0,0,.63-1.63Zm2.39-11.18A0.83,0.83,0,0,0,9.61,67a1,1,0,0,0-.49-0.11,1.87,1.87,0,0,0-1.41.72,9,9,0,0,0-1.93,5,8.88,8.88,0,0,0-.06,1.06,2,2,0,0,0,.45,1.51,0.87,0.87,0,0,0,.64.26,1.86,1.86,0,0,0,1.26-.52,2.78,2.78,0,0,0,.82-1.38Z" transform="translate(-2.13 -60.6)" style="fill:#ff9a61"/><path d="M18.09,76.9l-1.26,5.92-3.67.88,4.06-19.13h3.5l-0.39,1.83a4.21,4.21,0,0,1,2.84-1,2.64,2.64,0,0,1,2.74,2,5.79,5.79,0,0,1,.23,1.69A16.23,16.23,0,0,1,26,71a12.12,12.12,0,0,1-.39,1.91,10.35,10.35,0,0,1-.72,1.83,6.3,6.3,0,0,1-1.11,1.56,5,5,0,0,1-1.57,1.09,5.59,5.59,0,0,1-2.27.4A2,2,0,0,1,18.09,76.9Zm4.72-7.79q0-2-1.22-2a1.61,1.61,0,0,0-.87.3,2.54,2.54,0,0,0-.8.9l-1.44,6.8a1,1,0,0,0,1,.56A2,2,0,0,0,21,75a7,7,0,0,0,1.64-3.87A12.74,12.74,0,0,0,22.81,69.11Z" transform="translate(-2.13 -60.6)" style="fill:#ff9a61"/><path d="M31.05,74.34q0,1.07.69,1.07a1.5,1.5,0,0,0,1.18-.57,4.35,4.35,0,0,0,.75-1.42l1.7-8h3.5L36.46,76.74a4.37,4.37,0,0,0,1.82-1.12,6.21,6.21,0,0,0,1.24-2.36h1a6.06,6.06,0,0,1-3.13,4.13,7.1,7.1,0,0,1-1.16.42l-0.37,1.76A5.27,5.27,0,0,1,34,82.94a3.82,3.82,0,0,1-2.34.76,3.5,3.5,0,0,1-2.11-.58,2.15,2.15,0,0,1-.8-1.86q0-2.22,4-3.54L33,76.41a3.88,3.88,0,0,1-2.92,1.35,2.66,2.66,0,0,1-1.85-.69,2.89,2.89,0,0,1-.75-2.22,7.86,7.86,0,0,1,.19-1.59l1.65-7.8h3.5l-1.74,8.26A2.74,2.74,0,0,0,31.05,74.34Zm1.45,4.59q-2.37.85-2.37,2.07a0.77,0.77,0,0,0,.46.72,1.12,1.12,0,0,0,.45.07,1,1,0,0,0,.69-0.53,4.32,4.32,0,0,0,.63-1.63Z" transform="translate(-2.13 -60.6)" style="fill:#ff9a61"/><path d="M50.08,73.26q-2.88,4.5-6.49,4.5-4,0-4-2.74A3.39,3.39,0,0,1,41,72.35a8.64,8.64,0,0,1,1.23-.88q0.67-.39,1.23-0.81a2.62,2.62,0,0,0,1.34-2.08,1,1,0,0,0-1.12-1.13Q42.09,67.46,41,70H39.86a9.18,9.18,0,0,1,2-3.51,4.59,4.59,0,0,1,3.38-1.23,2.94,2.94,0,0,1,2.9,1.48A2.81,2.81,0,0,1,48.44,68a3.82,3.82,0,0,1-.21,1.32,3.73,3.73,0,0,1-.57,1,7.08,7.08,0,0,1-1.78,1.5l-0.94.59a4.19,4.19,0,0,0-1.33,1.1,1.69,1.69,0,0,0-.3.9q0,1.28,1.68,1.28a4.66,4.66,0,0,0,3.14-1.29,11.38,11.38,0,0,0,1.12-1.16h0.83Z" transform="translate(-2.13 -60.6)" style="fill:#ff9a61"/><path d="M63.52,68.39a7.46,7.46,0,0,1-4.31,2,9.49,9.49,0,0,1-1.91,5.32,4.88,4.88,0,0,1-3.89,2q-2.8,0-3.61-2.07a4.34,4.34,0,0,1-.28-1.6,11,11,0,0,1,.15-1.79,12.11,12.11,0,0,1,.47-1.87,8.69,8.69,0,0,1,2.1-3.52,5.41,5.41,0,0,1,3.94-1.61q3.12,0,3.12,3.88v0a2.31,2.31,0,0,0,.4,0,4.72,4.72,0,0,0,1.68-.42,9.76,9.76,0,0,0,1.93-1Zm-6.33,2.09a1,1,0,0,1-.65-1.08,1.26,1.26,0,0,1,.76-1.26A2.52,2.52,0,0,0,57.05,67a0.83,0.83,0,0,0-.77-0.32q-1.12,0-2.14,2.46a11.63,11.63,0,0,0-1,4.37,3.19,3.19,0,0,0,.21,1.49,1,1,0,0,0,.45.4,2,2,0,0,0,.64.08q0.83,0,1.65-1.46A10,10,0,0,0,57.19,70.48Z" transform="translate(-2.13 -60.6)" style="fill:#ff9a61"/><path d="M65.36,83.7L67,76.43a3.77,3.77,0,0,1-2.81,1.33,3.28,3.28,0,0,1-2.47-.94,4.14,4.14,0,0,1-.91-3,11.14,11.14,0,0,1,1.53-5.47,6.37,6.37,0,0,1,2-2.18A4.71,4.71,0,0,1,67,65.35q2,0,2,1.33l1.21-5.59,3.36-.49-1.32,5.79a4.17,4.17,0,0,1,2.85-1q3,0,3,3.73a11.46,11.46,0,0,1-1.42,6.05A5.13,5.13,0,0,1,72,77.76a2.09,2.09,0,0,1-2-.87l-1.27,5.92Zm3.43-16a0.93,0.93,0,0,0-1.05-.82A2.25,2.25,0,0,0,66,68.07a8.32,8.32,0,0,0-1.16,2.55,12.06,12.06,0,0,0-.46,2.94,2.06,2.06,0,0,0,.47,1.63,0.8,0.8,0,0,0,.58.25,1.76,1.76,0,0,0,.72-0.18,2.6,2.6,0,0,0,1.35-1.58Zm1.65,7.42a0.8,0.8,0,0,0,.84.56,2.16,2.16,0,0,0,1.11-.27,3.1,3.1,0,0,0,.85-0.75,6.69,6.69,0,0,0,1.12-2.42,11.74,11.74,0,0,0,.42-3.1q0-2-1.21-2a2,2,0,0,0-1.69,1.2Z" transform="translate(-2.13 -60.6)" style="fill:#ff9a61"/><path d="M93,73.26q-1.54,4.5-4.88,4.5a2.23,2.23,0,0,1-2.41-2.3,4.16,4.16,0,0,1-3.59,2.3,2.66,2.66,0,0,1-1.85-.69,2.89,2.89,0,0,1-.75-2.22,7.92,7.92,0,0,1,.19-1.59l1.65-7.8h3.5l-1.74,8.26a3.77,3.77,0,0,0-.07.69q0,1,.72,1,1.28,0,1.95-2.15l1.65-7.8h3.5l-1.74,8.26a3.42,3.42,0,0,0-.11.85,0.82,0.82,0,0,0,1,.83q1.37,0,2-2.15h1Z" transform="translate(-2.13 -60.6)" style="fill:#ff9a61"/><path d="M107.14,73.26q-1.53,4.5-4.52,4.5a2.89,2.89,0,0,1-2.13-.74,2.38,2.38,0,0,1-.74-1.73,18.41,18.41,0,0,1,.53-3.4l1.07-4.82a2.06,2.06,0,0,0-1.86,1,10,10,0,0,0-1.07,3.06q-0.44,2-.72,3.16A8.11,8.11,0,0,1,97,76.2a2.84,2.84,0,0,1-2.69,1.57,2.45,2.45,0,0,1-2-.81,3.1,3.1,0,0,1-.67-2,1.72,1.72,0,0,1,.88-1.69,1.6,1.6,0,0,1,.74-0.14,1.11,1.11,0,0,1,.81.35,1.26,1.26,0,0,1,.35.94,1.14,1.14,0,0,1-.3.87,0.8,0.8,0,0,1-.68.23,1,1,0,0,0,.19.51,0.89,0.89,0,0,0,.76.26,1.24,1.24,0,0,0,.94-0.39,5.37,5.37,0,0,0,1-2.55l0.36-1.79q1-5.08,3.16-5.79a4.59,4.59,0,0,1,1.51-.24H105l-1.72,7.9a5.32,5.32,0,0,0-.15,1,0.88,0.88,0,0,0,1,1,1.41,1.41,0,0,0,1.17-.56,7,7,0,0,0,.87-1.58h1Z" transform="translate(-2.13 -60.6)" style="fill:#ff9a61"/><path d="M111.08,69.41a5.6,5.6,0,0,1,2.15-.49,3.47,3.47,0,0,1,2.58.85,3.1,3.1,0,0,1,.84,2.27,5.52,5.52,0,0,1-.85,2.84,6,6,0,0,1-2.62,2.28,6.65,6.65,0,0,1-2.93.59,4,4,0,0,1-2.69-.83,2.82,2.82,0,0,1-1-2.28,6.35,6.35,0,0,1,.17-1.39l1.65-7.8h3.5Zm-1,4.62a2.33,2.33,0,0,0-.07.68,0.9,0.9,0,0,0,1,1,2,2,0,0,0,1.64-1.12,3.84,3.84,0,0,0,.74-2.06q0-1.8-1.31-1.8a2.56,2.56,0,0,0-1.44.44Z" transform="translate(-2.13 -60.6)" style="fill:#ff9a61"/><path d="M133.25,77.76q-3.11,0-3.11-2.74a14.85,14.85,0,0,1,.55-3.18,15,15,0,0,0,.55-3q0-1.25-.88-1.25A2,2,0,0,0,128.79,69a4.57,4.57,0,0,0-.33.85l-1.65,7.8h-3.5l1.78-8.39a2.49,2.49,0,0,0,.07-0.61q0-1.07-.72-1.07a1.49,1.49,0,0,0-1.22.67,4.78,4.78,0,0,0-.77,1.6l-1.65,7.8h-3.5l2.58-12.15h3.5l-0.26,1.26a3.8,3.8,0,0,1,3-1.38,2.26,2.26,0,0,1,2.49,2.09A3.94,3.94,0,0,1,132,65.37a2.91,2.91,0,0,1,1.92.64,2.3,2.3,0,0,1,.77,1.88,11.89,11.89,0,0,1-.4,2.85l-0.57,2.37a5.48,5.48,0,0,0-.19,1.26,0.86,0.86,0,0,0,.89,1,1.55,1.55,0,0,0,1.26-.52,5.89,5.89,0,0,0,.87-1.63h1A7.87,7.87,0,0,1,135.25,77,3.2,3.2,0,0,1,133.25,77.76Z" transform="translate(-2.13 -60.6)" style="fill:#ff9a61"/><path d="M139.83,76.9l-1.26,5.92-3.67.88L139,64.57h3.5l-0.39,1.83a4.21,4.21,0,0,1,2.84-1,2.64,2.64,0,0,1,2.74,2,5.76,5.76,0,0,1,.23,1.69,16,16,0,0,1-.11,1.91,12.11,12.11,0,0,1-.38,1.91,10.42,10.42,0,0,1-.72,1.83,6.37,6.37,0,0,1-1.11,1.56A5,5,0,0,1,144,77.36a5.6,5.6,0,0,1-2.27.4A2,2,0,0,1,139.83,76.9Zm4.72-7.79q0-2-1.22-2a1.61,1.61,0,0,0-.87.3,2.53,2.53,0,0,0-.8.9l-1.44,6.8a1,1,0,0,0,1,.56,2,2,0,0,0,1.48-.69,7,7,0,0,0,1.64-3.87A12.74,12.74,0,0,0,144.55,69.11Z" transform="translate(-2.13 -60.6)" style="fill:#ff9a61"/><path d="M87.63,87c0-.35.06,0,0.14-1H33v2H87.77A2.46,2.46,0,0,1,87.63,87Z" transform="translate(-2.13 -60.6)" style="fill:#ff9a61"/><path d="M95.48,86c0.08,1,.14.65,0.14,1a2.46,2.46,0,0,1-.14,1H116V86H95.48Z" transform="translate(-2.13 -60.6)" style="fill:#ff9a61"/><circle cx="89.5" cy="26.4" r="4" style="fill:none;stroke:#ff9a61;stroke-miterlimit:10;stroke-width:2px"/></svg>